<!-- paperbank.svg -->
<svg width="24" height="24" viewBox="0 0 24 24" fill="none" xmlns="http://www.w3.org/2000/svg" aria-hidden="true" role="img">
  <!-- paper outline -->
  <path d="M4 3.5h9.5l6.5 6.5v8a2 2 0 0 1-2 2H4a2 2 0 0 1-2-2v-13a2 2 0 0 1 2-2z" stroke="#00E6F0" stroke-width="1.6" stroke-linecap="round" stroke-linejoin="round"></path>
  <!-- folded corner -->
  <path d="M13.5 3.5v6h6" stroke="#00E6F0" stroke-width="1.2" stroke-linecap="round" stroke-linejoin="round"></path>
  <!-- scribble lines -->
  <path d="M7 11.2c1.2-.2 2.6-.4 3.8 0 1 .3 1.8.4 2.8.1" stroke="#00E6F0" stroke-opacity="0.95" stroke-width="1.4" stroke-linecap="round" stroke-linejoin="round"></path>
  <path d="M7 13.2c1.6-.3 2.8-.2 4.2.2 1 .3 2 .2 2.8 0" stroke="#00E6F0" stroke-opacity="0.95" stroke-width="1.4" stroke-linecap="round" stroke-linejoin="round"></path>
  <path d="M7 15.2c1.0-.1 2.4-.2 3.6 0 1.2.2 2.4.1 3.2-.2" stroke="#00E6F0" stroke-opacity="0.95" stroke-width="1.4" stroke-linecap="round" stroke-linejoin="round"></path>
  <!-- small accent dots -->
  <circle cx="8.4" cy="9.2" r="0.5" fill="#00E6F0" opacity="0.95"></circle>
  <circle cx="11.2" cy="9.2" r="0.5" fill="#00E6F0" opacity="0.95"></circle>
</svg>
